<svg xmlns="http://www.w3.org/2000/svg" xmlns:xlink="http://www.w3.org/1999/xlink" width="160" height="43.21" viewBox="0 0 160 43.21">
  <defs>
    <linearGradient id="linear-gradient" x1="0.077" y1="0.73" x2="0.892" y2="0.727" gradientUnits="objectBoundingBox">
      <stop offset="0" stop-color="#f77a22"/>
      <stop offset="1" stop-color="#da2128"/>
    </linearGradient>
    <linearGradient id="linear-gradient-2" x1="1.427" y1="0.434" x2="0" y2="0.418" gradientUnits="objectBoundingBox">
      <stop offset="0" stop-color="#fb8924"/>
      <stop offset="1" stop-color="#da2128"/>
    </linearGradient>
    <linearGradient id="linear-gradient-4" x1="0.191" y1="0.76" x2="0.833" y2="-0.024" gradientUnits="objectBoundingBox">
      <stop offset="0" stop-color="#fd9826"/>
      <stop offset="0.547" stop-color="#f26a1f"/>
      <stop offset="1" stop-color="#d32f2f"/>
    </linearGradient>
    <linearGradient id="linear-gradient-5" x1="1.101" y1="0.175" x2="0.198" y2="0.883" gradientUnits="objectBoundingBox">
      <stop offset="0" stop-color="#263a5d"/>
      <stop offset="1" stop-color="#d32f2f"/>
    </linearGradient>
    <linearGradient id="linear-gradient-6" x1="1" y1="0.447" x2="-0.663" y2="0.443" gradientUnits="objectBoundingBox">
      <stop offset="0" stop-color="#b71c1c"/>
      <stop offset="1" stop-color="#45597c"/>
    </linearGradient>
    <linearGradient id="linear-gradient-7" y1="0.876" x2="0.835" y2="-0.036" gradientUnits="objectBoundingBox">
      <stop offset="0" stop-color="#ef5350"/>
      <stop offset="0.537" stop-color="#9c434f"/>
      <stop offset="1" stop-color="#5c374f" stop-opacity="0.22"/>
    </linearGradient>
  </defs>
  <g id="Group_1" data-name="Group 1" transform="translate(-950 -197)">
    <g id="Group_7446" data-name="Group 7446" transform="translate(1012.839 202.304)">
      <g id="Group_7443" data-name="Group 7443" transform="translate(0 0)">
        <path id="Path_13924" data-name="Path 13924" d="M384.592,59.749h-5.413l-4.131,9.914-4.923-10.315h-1.776L363.5,69.876l-4.2-10.127h-5.415l8.485,18.7H364.1l5.15-10.371,5.114,10.371h1.739L384.524,59.9Z" transform="translate(-340.405 -51.184)" fill="#fff"/>
        <path id="Path_13925" data-name="Path 13925" d="M610.341,60.427a5.377,5.377,0,0,0-1.634-.223h-.059a6.322,6.322,0,0,0-4.8,2.184V60.423h-4.734V79.042h5.137V69.574c0-2.923,1.729-4.6,4.745-4.6h1.419V60.45Z" transform="translate(-533.69 -51.857)" fill="#fff"/>
        <path id="Path_13926" data-name="Path 13926" d="M299.892,20.807c-4.561,0-7.072,2.447-7.072,6.89v1.675h-2.553v4.369h2.553V47.991h5.137V33.742h3.975V29.372h-3.975V28.135c0-1.92.921-2.7,3.177-2.7a10.927,10.927,0,0,1,1.445.108l.121.017V21.236l-.075-.023A9.388,9.388,0,0,0,299.892,20.807Z" transform="translate(-290.266 -20.807)" fill="#fff"/>
        <path id="Path_13927" data-name="Path 13927" d="M674.146,39.1l6.874-8.451h-6.109L668.575,38.5V22.875H663.44V49.622h5.136V39.5l7.1,10.117h5.876Z" transform="translate(-584.388 -22.437)" fill="#fff"/>
        <path id="Path_13928" data-name="Path 13928" d="M505.2,59.339a9.716,9.716,0,0,0-7.027,2.858,9.106,9.106,0,0,0-2.747,6.66v.008a9.3,9.3,0,0,0,2.765,6.7,9.647,9.647,0,0,0,6.778,2.842l.189,0,.191,0a9.81,9.81,0,0,0,6.891-2.9,9.384,9.384,0,0,0,.052-13.252A9.864,9.864,0,0,0,505.2,59.339Zm4.56,9.553v.069a4.9,4.9,0,1,1,0-.069Z" transform="translate(-451.964 -51.175)" fill="#fff"/>
      </g>
      <circle id="Ellipse_62" data-name="Ellipse 62" cx="2.575" cy="2.575" r="2.575" transform="translate(10.301 22.212)" fill="#ee5b1d"/>
    </g>
    <path id="Path_13836" data-name="Path 13836" d="M23879.336,23441.557a2.4,2.4,0,0,1-1.592-.609h-.025l-8.59-8.578-.014-.037a4.082,4.082,0,0,1-1.1-2.795v-.072l-.018-.045V23413.1l.018-.008a.347.347,0,0,1,0-.064,1.7,1.7,0,0,1,2.943-1.154l.006,0,5.771,5.775h.023a3.393,3.393,0,0,0,2.582,1.186,3.43,3.43,0,0,0,2.6-1.2h.01l17.271-17.268.02.008a1.673,1.673,0,0,1,1.055-.371,1.7,1.7,0,0,1,1.7,1.6l.012,0-.008,16.568-.01.027a4.071,4.071,0,0,1-1.176,2.852l-.008.023-19.865,19.883h-.023A2.388,2.388,0,0,1,23879.336,23441.557Z" transform="translate(-22917.98 -23203)" fill="url(#linear-gradient)"/>
    <path id="Path_13883" data-name="Path 13883" d="M23870.738,23416a3.082,3.082,0,0,1-2.738-1.658v.008l0,0v-2.852c0-.006,0-.006.008-.006v-.006l0,0v-.006l.006,0v-9.7l.008-.006v-.07a1.7,1.7,0,0,1,2.945-1.152l0,0,5.775,5.777h.018a3.406,3.406,0,0,0,5.184-.018h.016v.006l-.109.115-8.895,8.654,0,0a.014.014,0,0,0-.008,0c-.086.084-.172.164-.258.234-.061.043-.113.082-.162.109A3.051,3.051,0,0,1,23870.738,23416Z" transform="translate(-22917.996 -23191.676)" fill="url(#linear-gradient-2)"/>
    <path id="Path_13881" data-name="Path 13881" d="M23878.693,23416.008a3.086,3.086,0,0,1-2.744-1.664v-2.855s0,0,0-.006a.012.012,0,0,0,.006-.01l.006,0v-9.7l.01-.008c0-.02,0-.043,0-.068a1.7,1.7,0,0,1,2.945-1.152l0,0,5.773,5.777h.023a3.405,3.405,0,0,0,5.18-.018h.012l.006.006-8.145,8.166,0,0a3.534,3.534,0,0,1-.871.613A3.066,3.066,0,0,1,23878.693,23416.008Z" transform="translate(-22906.721 -23191.676)" fill="url(#linear-gradient-2)"/>
    <path id="Path_13878" data-name="Path 13878" d="M23872.574,23419.414a4.712,4.712,0,0,1-2.293-.631c-.414-.258-1.217-1.008-1.238-1.4s-.025-1.7-.025-1.711v-1.912a3.09,3.09,0,0,0,4.531,1.09,2.194,2.194,0,0,0,.4-.324l9-8.754,5.84-5.77,2.848,2.895-14.578,14.486h-.027a7.641,7.641,0,0,1-2.057,1.424A5.7,5.7,0,0,1,23872.574,23419.414Z" transform="translate(-22919.016 -23191.094)" fill="url(#linear-gradient-4)"/>
    <path id="Path_13856" data-name="Path 13856" d="M23879.336,23441.557a2.4,2.4,0,0,1-1.592-.609h-.025l-8.59-8.578-.014-.037a4.082,4.082,0,0,1-1.1-2.795v-.072l-.018-.045V23413.1l.018-.008a.347.347,0,0,1,0-.064,1.7,1.7,0,0,1,2.943-1.154l.006,0,5.771,5.775h.023a3.393,3.393,0,0,0,2.582,1.186,3.43,3.43,0,0,0,2.6-1.2h.01l17.271-17.268.02.008a1.673,1.673,0,0,1,1.055-.371,1.7,1.7,0,0,1,1.7,1.6l.012,0-.008,16.568-.01.027a4.071,4.071,0,0,1-1.176,2.852l-.008.023-19.865,19.883h-.023A2.388,2.388,0,0,1,23879.336,23441.557Z" transform="translate(-22898.748 -23203)" fill="url(#linear-gradient-5)"/>
    <path id="Path_13884" data-name="Path 13884" d="M23870.738,23416a3.082,3.082,0,0,1-2.738-1.658v.008l0,0v-2.852c0-.006,0-.006.008-.006v-.006l0,0v-.006l.006,0v-9.7l.008-.006v-.07a1.7,1.7,0,0,1,2.945-1.152l0,0,5.775,5.777h.018a3.406,3.406,0,0,0,5.184-.018h.016v.006l-.109.115-8.895,8.654,0,0a.014.014,0,0,0-.008,0c-.086.084-.172.164-.258.234-.061.043-.113.082-.162.109A3.051,3.051,0,0,1,23870.738,23416Z" transform="translate(-22898.748 -23191.676)" fill="url(#linear-gradient-6)"/>
    <path id="Path_13885" data-name="Path 13885" d="M23872.574,23419.414a4.712,4.712,0,0,1-2.293-.631c-.414-.258-1.217-1.008-1.238-1.4s-.025-1.7-.025-1.711v-1.912a3.09,3.09,0,0,0,4.531,1.09,2.194,2.194,0,0,0,.4-.324l9-8.754,5.84-5.77,2.848,2.895-14.578,14.486h-.027a7.641,7.641,0,0,1-2.057,1.424A5.7,5.7,0,0,1,23872.574,23419.414Z" transform="translate(-22899.77 -23191.094)" fill="url(#linear-gradient-7)"/>
    <path id="Path_13923" data-name="Path 13923" d="M2.093-11.327h.616v-2.18H3.925a1.517,1.517,0,0,0,1.666-1.524,1.514,1.514,0,0,0-1.666-1.508H2.093Zm.616-2.733v-1.927h1.2a.935.935,0,0,1,1.043.964.931.931,0,0,1-1.043.964Zm4.652,2.733h.608v-3.846H7.361Zm-.15-5.315a.445.445,0,0,0,.458.442.438.438,0,0,0,.45-.442.448.448,0,0,0-.45-.442A.45.45,0,0,0,7.211-16.642Zm2.606,3.388a2,2,0,0,0,2.006,2.006,2.012,2.012,0,0,0,2.022-2.006,2,2,0,0,0-2.014-2.006A2,2,0,0,0,9.817-13.254Zm3.4.008a1.4,1.4,0,0,1-1.4,1.437,1.392,1.392,0,0,1-1.382-1.437,1.393,1.393,0,0,1,1.39-1.453A1.4,1.4,0,0,1,13.221-13.246Zm5.663-.5a1.376,1.376,0,0,0-1.429-1.516,1.564,1.564,0,0,0-1.185.5v-.411H15.7v3.846h.608v-2.346A.979.979,0,0,1,17.32-14.7a.932.932,0,0,1,.956,1.027v2.346h.608Zm5.473.679a2.314,2.314,0,0,0,.047-.458,1.693,1.693,0,0,0-1.753-1.738,1.982,1.982,0,0,0-1.967,2.014,2,2,0,0,0,2.038,2.006,2.107,2.107,0,0,0,1.54-.671l-.355-.411a1.629,1.629,0,0,1-1.177.521,1.363,1.363,0,0,1-1.414-1.264ZM21.34-13.6a1.317,1.317,0,0,1,1.3-1.106A1.08,1.08,0,0,1,23.78-13.6Zm8.316.537a2.315,2.315,0,0,0,.047-.458A1.693,1.693,0,0,0,27.95-15.26a1.982,1.982,0,0,0-1.967,2.014,2,2,0,0,0,2.038,2.006,2.107,2.107,0,0,0,1.54-.671l-.355-.411a1.629,1.629,0,0,1-1.177.521,1.363,1.363,0,0,1-1.414-1.264ZM26.639-13.6a1.317,1.317,0,0,1,1.3-1.106A1.08,1.08,0,0,1,29.08-13.6Zm6.966-1.572a1.252,1.252,0,0,0-.284-.032,1.482,1.482,0,0,0-1.193.577v-.545H31.56v3.846h.608v-2.18a1.129,1.129,0,0,1,1.208-1.129h.229Zm1.6,3.846h.608v-3.846h-.608Zm-.15-5.315a.445.445,0,0,0,.458.442.438.438,0,0,0,.45-.442.448.448,0,0,0-.45-.442A.45.45,0,0,0,35.058-16.642Zm6.065,2.9a1.376,1.376,0,0,0-1.43-1.516,1.564,1.564,0,0,0-1.185.5v-.411h-.569v3.846h.608v-2.346A.979.979,0,0,1,39.56-14.7a.932.932,0,0,1,.956,1.027v2.346h.608Zm5.2-1.429v.616a1.734,1.734,0,0,0-1.461-.7,1.878,1.878,0,0,0-1.888,1.951,1.867,1.867,0,0,0,1.888,1.943,1.8,1.8,0,0,0,1.429-.64v.34a1.17,1.17,0,0,1-1.279,1.287,2.083,2.083,0,0,1-1.437-.608l-.355.426a2.534,2.534,0,0,0,1.809.742A1.744,1.744,0,0,0,46.9-11.7v-3.475ZM46.3-13.309a1.286,1.286,0,0,1-1.343,1.382A1.321,1.321,0,0,1,43.588-13.3a1.332,1.332,0,0,1,1.366-1.382A1.287,1.287,0,0,1,46.3-13.309Zm9.311-3.23v3.917l-3.317-4H52.07v5.3h.616v-3.909l3.317,4h.221v-5.3Zm6.152,3.475a2.314,2.314,0,0,0,.047-.458,1.693,1.693,0,0,0-1.753-1.738,1.982,1.982,0,0,0-1.967,2.014,2,2,0,0,0,2.038,2.006,2.107,2.107,0,0,0,1.54-.671l-.355-.411a1.629,1.629,0,0,1-1.177.521,1.363,1.363,0,0,1-1.414-1.264ZM58.744-13.6a1.317,1.317,0,0,1,1.3-1.106A1.08,1.08,0,0,1,61.184-13.6Zm9.951-1.572L67.6-12.345l-1.3-2.914h-.229L64.8-12.322l-1.114-2.851H63.04l1.635,3.933h.213l1.3-2.906L67.5-11.24h.221l1.619-3.933Zm5.37,3.846h.616v-2.18H75.9a1.517,1.517,0,0,0,1.666-1.524A1.514,1.514,0,0,0,75.9-16.539H74.065Zm.616-2.733v-1.927h1.2a.935.935,0,0,1,1.043.964.931.931,0,0,1-1.043.964Zm7.448.363a1.408,1.408,0,0,0-1.5-1.564,1.767,1.767,0,0,0-1.564.845l.4.332a1.342,1.342,0,0,1,1.121-.616.867.867,0,0,1,.932.971v.332H80.3c-.829,0-1.382.419-1.382,1.074s.553,1.082,1.343,1.082a1.548,1.548,0,0,0,1.3-.584v.5h.569Zm-.608.892a1.129,1.129,0,0,1-1.177,1.058c-.45,0-.8-.221-.8-.608,0-.355.292-.545.829-.545h1.145Zm4.786.964a3.257,3.257,0,0,1-.513.047c-.529,0-.813-.19-.813-.734v-2.1h1.2v-.545h-1.2v-1.05h-.608v1.05h-.648v.545h.648v2.14a1.146,1.146,0,0,0,1.3,1.248,2.991,2.991,0,0,0,.64-.087Zm4.881-1.9a1.374,1.374,0,0,0-1.422-1.516,1.453,1.453,0,0,0-1.153.521V-17.25H88v5.923h.608v-2.338A.985.985,0,0,1,89.624-14.7a.931.931,0,0,1,.956,1.035v2.338h.608ZM92.9-11.99a1.869,1.869,0,0,0,1.5.75,1.529,1.529,0,0,0,.956-.292,1,1,0,0,0,.395-.837c0-.529-.3-.829-1.019-1.137l-.355-.15c-.466-.2-.624-.316-.624-.561,0-.308.261-.482.64-.482a1.353,1.353,0,0,1,.948.426l.371-.379a1.627,1.627,0,0,0-1.287-.608c-.734,0-1.3.4-1.3,1.074,0,.513.316.806.956,1.066l.371.158c.474.19.671.308.671.616,0,.34-.316.545-.734.545a1.5,1.5,0,0,1-1.106-.592Z" transform="translate(1013.525 250.028)" fill="#72839f"/>
  </g>
</svg>
